<?xml version="1.0" standalone="no"?>
<!DOCTYPE svg PUBLIC "-//W3C//DTD SVG 20010904//EN"
 "http://www.w3.org/TR/2001/REC-SVG-20010904/DTD/svg10.dtd">
<svg version="1.0" xmlns="http://www.w3.org/2000/svg"
 width="500.000000pt" height="500.000000pt" viewBox="0 0 500.000000 500.000000"
 preserveAspectRatio="xMidYMid meet">
<metadata>
Created by potrace 1.14, written by Peter Selinger 2001-2017
</metadata>
<g transform="translate(0.000000,500.000000) scale(0.100000,-0.100000)"
fill="#000000" stroke="none">
<path d="M2570 4934 c-34 -15 -41 -26 -42 -65 -2 -51 21 -63 120 -65 95 -2
233 -13 243 -20 4 -2 24 -6 45 -10 22 -3 64 -13 94 -21 30 -8 69 -18 85 -22
110 -29 389 -155 501 -226 30 -19 57 -35 60 -35 2 0 10 -5 17 -10 7 -6 37 -28
67 -50 73 -52 66 -47 140 -110 295 -250 528 -578 664 -935 21 -55 39 -104 41
-110 1 -5 5 -17 8 -25 9 -23 35 -122 41 -153 2 -15 7 -35 10 -45 6 -18 13 -56
22 -112 3 -19 7 -46 10 -60 23 -140 21 -445 -4 -582 -16 -85 0 -122 56 -131
36 -6 60 15 67 59 2 16 7 40 10 54 8 38 18 231 18 355 -1 144 -8 219 -37 385
-9 55 -38 169 -62 250 -25 82 -129 345 -145 365 -4 6 -21 35 -37 65 -16 30
-39 72 -51 93 -34 61 -144 222 -153 225 -4 2 -8 10 -8 17 0 7 -3 15 -7 17 -5
2 -21 19 -37 38 -96 117 -243 270 -293 305 -12 9 -39 31 -59 50 -20 19 -40 35
-45 35 -5 0 -16 8 -26 18 -28 28 -91 72 -102 72 -6 0 -11 4 -11 8 0 5 -10 14
-22 21 -13 6 -36 20 -53 31 -79 50 -201 112 -315 159 -58 24 -114 47 -125 52
-22 10 -186 57 -219 63 -11 2 -41 9 -66 14 -43 10 -92 19 -155 29 -96 14 -219
18 -245 7z"/>
<path d="M1585 4643 c-11 -3 -24 -8 -30 -12 -5 -4 -37 -18 -70 -31 -33 -13
-69 -29 -80 -37 -11 -7 -27 -13 -37 -13 -10 0 -18 -3 -18 -7 0 -5 -34 -26 -75
-47 -41 -22 -75 -43 -75 -48 0 -4 -6 -8 -14 -8 -8 0 -21 -6 -28 -13 -7 -6 -40
-30 -73 -52 -33 -22 -70 -50 -82 -62 -12 -13 -26 -23 -31 -23 -10 0 -261 -245
-305 -297 -15 -18 -27 -37 -27 -43 0 -5 -4 -10 -8 -10 -9 0 -92 -117 -92 -130
0 -4 -7 -13 -16 -21 -9 -7 -29 -38 -45 -68 -16 -31 -34 -63 -39 -71 -20 -31
-74 -158 -107 -255 -40 -115 -72 -252 -80 -343 -7 -76 10 -103 60 -96 36 4 55
21 62 52 3 12 7 30 9 40 2 9 7 44 12 77 8 63 10 73 14 78 1 1 4 11 6 22 5 29
10 47 22 78 7 16 12 32 12 38 0 14 69 178 98 234 15 28 43 76 63 107 21 31 40
66 44 77 3 12 11 21 16 21 5 0 9 7 9 16 0 8 4 12 10 9 6 -3 10 0 10 7 0 7 14
27 30 45 17 18 30 34 30 37 0 16 216 236 232 236 5 0 6 5 3 10 -3 6 -2 10 4
10 5 0 36 22 68 48 32 27 72 57 88 67 17 11 32 23 35 26 8 11 209 129 220 129
6 0 10 5 10 10 0 6 5 10 11 10 5 0 31 10 57 22 26 12 50 22 53 22 17 2 116 53
126 66 18 22 16 65 -5 83 -18 17 -38 19 -77 10z"/>
<path d="M2548 4635 c-2 -2 -48 -5 -103 -9 -55 -3 -116 -9 -135 -13 -19 -3
-43 -6 -52 -7 -10 0 -18 -4 -18 -9 0 -4 -4 -5 -10 -2 -16 10 -291 -62 -365
-95 -11 -5 -44 -19 -74 -30 -77 -30 -231 -113 -331 -179 -88 -58 -151 -102
-160 -111 -3 -3 -27 -23 -55 -45 -125 -99 -225 -212 -219 -249 3 -22 38 -56
57 -56 8 0 20 7 27 15 7 8 15 13 19 11 3 -1 14 5 24 16 9 10 15 18 12 18 -8 0
76 83 145 143 30 27 96 75 145 108 50 33 95 63 100 67 6 4 30 19 55 32 25 14
48 30 52 35 4 6 8 6 8 2 0 -9 61 23 72 38 4 6 8 7 8 4 0 -4 42 10 93 31 50 21
126 49 167 63 70 23 98 31 160 42 14 3 36 7 50 10 135 29 372 38 530 20 103
-11 121 -14 190 -30 36 -9 72 -18 80 -19 19 -4 38 -11 130 -48 41 -16 81 -30
88 -30 6 -1 12 -5 12 -10 0 -5 5 -6 10 -3 6 3 10 1 10 -4 0 -6 6 -11 13 -11
18 0 216 -119 267 -160 11 -8 34 -26 52 -40 18 -13 87 -78 152 -145 66 -66
124 -119 128 -118 4 2 8 -1 8 -6 0 -16 49 -9 69 10 20 19 21 61 1 67 -5 2 -10
9 -10 15 0 30 -242 277 -271 277 -4 0 -9 4 -11 8 -1 5 -25 23 -53 42 -27 18
-52 36 -55 40 -10 12 -174 105 -182 103 -4 -2 -8 1 -8 6 0 9 -56 36 -63 30 -2
-2 -11 4 -21 14 -10 9 -23 17 -30 17 -7 0 -41 12 -77 26 -35 15 -86 33 -114
41 -27 7 -57 16 -65 18 -44 13 -161 37 -200 41 -133 13 -249 22 -252 19z"/>
<path d="M2437 4315 c-1 -2 -42 -5 -90 -9 -111 -8 -169 -16 -183 -27 -6 -5
-13 -6 -17 -3 -9 9 -201 -44 -300 -82 -349 -134 -656 -385 -858 -699 -85 -132
-196 -387 -224 -515 -42 -194 -48 -252 -49 -445 0 -155 6 -220 34 -350 18 -82
37 -160 40 -160 1 0 3 -7 5 -16 15 -80 164 -387 217 -449 10 -11 18 -23 18
-26 0 -10 123 -158 190 -227 36 -38 99 -95 140 -128 84 -65 220 -161 220 -154
0 2 17 -7 37 -21 20 -13 47 -27 60 -30 13 -4 23 -11 23 -17 0 -6 3 -7 7 -4 3
4 11 3 17 -2 10 -8 158 -70 181 -76 6 -1 17 -5 25 -8 61 -23 251 -66 320 -73
105 -10 169 -14 229 -14 69 -1 206 9 231 15 8 2 38 7 65 11 28 3 53 8 56 10 4
2 24 6 45 10 22 3 47 10 57 15 9 5 17 7 17 5 0 -3 12 -1 28 5 15 6 34 12 42
14 34 7 151 55 245 101 101 49 280 163 351 225 82 71 244 242 265 279 12 22
26 37 31 34 4 -3 8 -1 8 5 0 6 20 41 44 78 73 113 177 331 190 396 2 6 10 37
20 68 32 109 54 215 62 314 13 145 7 361 -11 455 -3 14 -8 41 -11 60 -39 235
-162 511 -324 730 -66 89 -249 280 -268 280 -7 0 -12 4 -12 10 0 5 -21 24 -47
41 -27 18 -50 35 -53 38 -30 34 -280 173 -372 206 -117 43 -154 56 -173 60
-11 2 -29 6 -40 9 -108 28 -211 45 -320 52 -49 3 -107 7 -128 8 -20 1 -38 2
-40 1z"/>
<path d="M4006 3794 c-20 -20 -19 -52 2 -85 9 -14 31 -47 47 -73 17 -27 35
-53 40 -60 6 -6 25 -44 44 -83 19 -40 38 -73 41 -73 3 0 6 -10 7 -22 1 -11 6
-24 10 -27 9 -7 58 -129 64 -159 1 -4 7 -23 15 -42 36 -96 76 -273 91 -405 16
-136 3 -540 -17 -540 -1 0 -3 -9 -5 -19 -56 -297 -200 -601 -405 -851 -66 -81
-186 -203 -250 -255 -23 -19 -50 -42 -59 -51 -30 -30 -206 -146 -286 -189 -97
-52 -93 -49 -105 -88 -7 -27 -5 -36 13 -55 18 -19 28 -22 54 -16 31 6 203 90
227 110 6 5 58 44 116 86 144 105 386 350 447 454 10 16 21 29 25 29 4 0 8 6
8 14 0 8 3 16 8 18 15 6 88 126 150 248 36 69 64 126 63 128 -1 1 6 19 15 40
15 34 45 126 45 137 0 2 6 20 15 40 8 19 14 37 14 40 0 3 0 6 1 8 0 1 2 9 4
17 2 8 8 36 14 63 6 26 14 64 17 85 3 20 7 43 9 50 9 26 19 189 18 304 0 159
-11 267 -38 383 -2 11 -11 49 -19 85 -30 133 -102 327 -178 483 -21 43 -38 82
-38 87 0 6 -3 10 -8 10 -4 0 -19 21 -32 47 -26 49 -32 58 -75 111 -21 24 -35
32 -60 32 -19 0 -41 -7 -49 -16z"/>
<path d="M884 3775 c-4 -8 -9 -13 -13 -10 -4 2 -16 -10 -26 -28 -10 -18 -21
-34 -24 -37 -3 -3 -27 -36 -52 -75 -117 -179 -231 -482 -265 -700 -3 -22 -7
-47 -9 -55 -2 -8 -6 -44 -10 -80 -3 -36 -8 -81 -11 -100 -6 -40 -5 -309 0
-355 2 -16 7 -64 11 -105 4 -41 10 -77 14 -80 3 -3 7 -14 8 -25 8 -97 83 -326
155 -475 28 -58 54 -107 57 -110 4 -3 13 -20 20 -37 8 -18 17 -33 22 -33 5 0
9 -5 9 -11 0 -6 15 -32 33 -57 46 -67 50 -71 74 -98 12 -13 20 -24 17 -24 -3
0 1 -6 8 -14 7 -7 33 -37 58 -66 58 -68 141 -152 214 -215 32 -27 63 -55 69
-60 47 -42 246 -180 309 -214 90 -50 129 -52 161 -9 18 24 19 31 8 52 -7 13
-32 33 -55 45 -105 55 -192 107 -220 133 -11 10 -23 18 -27 18 -4 0 -14 6 -21
13 -7 7 -23 19 -35 28 -122 84 -351 326 -454 479 -24 36 -47 67 -51 68 -5 2
-8 12 -8 22 0 10 -4 20 -9 22 -17 6 -144 283 -156 342 -3 10 -12 44 -21 75 -9
31 -17 65 -19 76 -1 11 -7 40 -13 65 -37 160 -44 429 -17 655 5 43 18 106 42
205 3 14 7 31 9 38 8 40 50 166 74 225 16 37 26 67 22 67 -4 0 -2 4 3 8 6 4
29 45 52 92 23 47 69 128 103 180 63 101 69 122 44 158 -18 26 -71 31 -80 7z"/>
<path d="M170 2668 c-20 -22 -21 -30 -15 -137 4 -62 8 -120 10 -130 1 -9 6
-38 9 -66 9 -65 17 -114 21 -134 3 -9 11 -47 19 -85 18 -80 77 -268 107 -341
62 -146 143 -311 167 -339 10 -10 15 -20 14 -23 -4 -4 150 -243 171 -265 7 -7
25 -31 42 -53 31 -42 144 -164 184 -199 13 -12 43 -40 67 -64 24 -23 45 -42
48 -42 3 0 16 -10 29 -23 31 -28 182 -137 191 -137 4 0 16 -9 28 -20 12 -11
28 -20 35 -20 7 0 13 -5 13 -12 0 -6 3 -8 7 -5 3 4 13 1 22 -7 26 -22 191
-108 191 -99 0 4 4 3 8 -2 21 -30 369 -152 512 -179 47 -9 108 -21 135 -26
121 -24 442 -33 565 -16 73 10 315 61 315 66 0 1 8 3 17 5 28 5 125 41 203 75
11 5 30 12 43 15 12 4 22 11 22 16 0 5 7 9 15 9 8 0 29 8 47 18 18 10 63 35
101 56 37 21 67 43 67 49 0 5 3 8 6 4 6 -6 80 39 114 70 29 26 78 63 82 63 23
0 368 346 368 369 0 4 10 18 23 31 31 35 61 79 81 118 16 30 16 36 2 57 -9 13
-25 26 -36 30 -23 7 -80 -12 -80 -26 0 -11 -100 -153 -112 -157 -4 -2 -8 -8
-8 -14 0 -12 -27 -42 -140 -157 -65 -66 -111 -106 -194 -171 -10 -8 -27 -23
-38 -33 -10 -9 -20 -16 -22 -15 -3 2 -16 -7 -30 -20 -15 -12 -29 -22 -32 -22
-3 0 -20 -11 -37 -24 -39 -29 -191 -109 -272 -142 -33 -14 -69 -29 -80 -34
-68 -30 -269 -85 -349 -95 -27 -3 -54 -9 -60 -13 -16 -10 -410 -10 -469 0 -29
5 -72 11 -97 13 -49 5 -173 34 -285 67 -38 11 -74 21 -80 23 -5 1 -23 7 -38
13 -16 7 -31 12 -33 12 -10 0 -179 74 -184 81 -3 3 -22 12 -42 20 -21 7 -38
17 -38 21 0 4 -9 8 -20 8 -11 0 -20 4 -20 8 0 4 -19 18 -42 30 -50 25 -58 30
-158 97 -79 53 -82 55 -116 83 -201 164 -342 323 -496 560 -57 88 -166 312
-202 417 -10 28 -21 59 -26 70 -10 24 -29 85 -34 111 -3 10 -9 31 -15 47 -6
15 -9 27 -6 27 2 0 -2 18 -10 40 -8 22 -12 40 -8 40 3 0 0 7 -7 15 -7 8 -10
15 -7 15 3 0 -1 28 -9 62 -8 35 -17 78 -19 98 -2 19 -7 54 -10 77 -3 23 -8 79
-10 125 -2 46 -4 86 -5 90 -1 16 -45 48 -66 48 -13 0 -33 -10 -44 -22z"/>
<path d="M3014 735 c-102 -35 -250 -73 -308 -80 -17 -2 -60 -7 -96 -11 -76 -9
-281 -10 -360 -1 -54 7 -152 27 -220 46 -77 21 -85 24 -95 31 -13 10 -97 36
-110 35 -62 -6 -89 -66 -47 -105 53 -47 283 -118 452 -138 121 -15 405 -7 530
14 85 14 304 78 326 95 6 5 13 6 16 3 3 -2 17 9 31 26 29 34 28 73 -1 102 -16
17 -22 16 -118 -17z"/>
</g>
</svg>
